<svg xmlns="http://www.w3.org/2000/svg" width="682.441" height="813.391" fill="none" overflow="visible"><g><path d="M 315.262 1.1 C 281.806 3.499 253.283 10.696 222.36 24.425 C 190.637 38.554 163.979 57.081 138.921 82.273 C 87.604 133.856 58.681 203.566 58.681 276.342 C 58.681 300.2 60.013 312.996 64.545 335.655 C 77.474 398.168 112.663 455.216 163.446 495.602 C 226.625 545.986 310.064 566.112 389.904 550.118 C 486.539 530.791 567.578 458.681 598.102 364.979 C 614.23 315.262 616.096 257.148 603.167 208.364 C 588.905 155.049 563.713 113.196 521.86 73.076 C 511.73 63.346 503.6 56.948 488.538 46.818 C 448.018 19.76 403.766 4.698 354.716 1.1 C 335.255 -0.367 335.522 -0.367 315.262 1.1 Z M 370.71 36.421 C 422.96 44.285 469.211 67.611 506.532 105.065 C 554.116 152.649 578.641 211.83 578.508 279.007 C 578.375 355.915 542.787 426.825 480.541 473.876 C 464.546 485.872 437.621 500.801 421.227 506.532 C 408.031 511.197 387.505 516.662 373.909 519.061 C 355.782 522.26 313.796 522.26 296.068 519.061 C 248.084 510.264 205.432 489.871 172.776 459.881 C 128.791 419.361 102.533 370.177 94.002 312.063 C 91.47 294.336 91.47 260.88 94.002 243.419 C 102.133 189.304 124.792 144.252 163.312 105.598 C 201.3 67.611 246.751 44.285 298.601 36.421 C 314.462 34.022 354.982 34.022 370.71 36.421 Z" fill="rgb(250, 250, 250)"></path><path d="M 298.701 53.299 C 262.58 59.964 237.788 69.827 208.997 89.021 C 156.481 123.809 122.359 177.525 110.497 243.903 C 108.231 256.698 108.231 298.551 110.497 311.88 C 118.894 360.397 138.487 400.651 170.477 434.639 C 206.065 472.36 252.583 496.486 304.699 503.95 C 320.027 506.082 350.55 506.216 366.012 503.95 C 403.866 498.618 441.187 483.29 471.31 460.631 C 496.502 441.704 521.827 411.847 536.355 383.723 C 554.216 349.201 561.68 318.545 561.68 278.558 C 561.814 241.104 556.216 215.379 541.021 181.923 C 513.83 122.743 457.981 75.025 396.402 58.631 C 365.479 50.367 326.158 48.234 298.701 53.299 Z M 229.391 163.929 L 229.391 178.591 L 193.403 178.591 L 193.403 149.267 L 229.391 149.267 Z M 351.883 225.909 C 358.148 247.901 363.879 265.762 364.679 265.629 C 365.345 265.496 367.212 260.697 368.944 254.966 C 370.544 249.234 375.742 231.373 380.407 215.246 L 388.938 185.922 L 425.992 185.922 L 435.722 225.242 C 441.054 246.835 445.186 265.096 444.786 266.029 C 444.119 267.761 422.393 271.227 419.461 270.161 C 418.528 269.761 416.129 262.83 413.996 253.899 C 411.997 245.369 409.731 238.971 409.198 239.504 C 408.664 240.037 405.732 248.035 402.666 257.232 C 399.734 266.429 396.535 274.559 395.602 275.359 C 394.669 276.159 389.471 277.891 384.006 279.224 C 371.21 282.29 359.347 286.688 347.751 292.553 C 342.82 295.086 338.155 297.218 337.621 297.218 C 337.088 297.218 335.889 294.952 335.089 292.153 C 334.289 289.488 327.891 268.961 320.694 246.568 C 313.629 224.176 307.365 204.849 307.098 203.516 C 306.698 202.316 305.899 201.25 305.499 201.25 C 304.966 201.25 300.7 205.249 296.035 210.181 C 291.37 215.246 283.639 223.243 278.841 228.175 C 270.177 237.238 270.177 237.238 272.31 240.837 C 273.509 242.97 282.573 259.098 292.436 276.825 L 310.43 309.214 L 307.365 311.48 C 298.701 318.011 283.773 326.675 281.907 326.275 C 280.707 326.009 272.31 312.946 262.846 296.285 C 253.649 280.024 245.519 266.695 244.719 266.695 C 244.052 266.695 240.187 270.96 236.455 276.159 L 229.391 285.755 L 229.391 327.875 L 193.403 327.875 L 193.403 187.921 L 197.135 187.788 C 205.265 187.388 226.058 188.188 227.125 188.854 C 227.658 189.121 228.058 190.454 227.924 191.653 C 227.258 198.451 228.191 231.907 229.124 231.773 C 229.657 231.773 236.455 224.043 244.319 214.846 C 252.183 205.515 261.113 195.119 264.179 191.52 L 269.777 185.255 L 305.099 185.522 L 340.42 185.922 Z M 507.965 187.388 C 507.965 188.588 505.166 198.318 501.834 208.981 C 498.501 219.777 493.303 236.305 490.371 245.902 C 487.438 255.366 484.373 263.629 483.573 264.163 C 482.64 264.696 475.576 265.229 467.712 265.229 C 455.049 265.229 453.316 264.962 453.316 262.963 C 453.316 261.097 469.311 202.716 473.443 189.521 L 474.909 185.255 L 491.437 185.255 C 505.566 185.255 507.965 185.522 507.965 187.388 Z M 499.568 283.223 C 518.361 285.622 546.219 291.887 543.686 293.22 C 542.753 293.753 535.689 294.553 527.958 295.086 C 506.232 296.285 487.705 301.617 466.112 312.547 C 449.184 321.077 436.522 330.141 423.193 342.936 L 413.596 352 L 385.872 351.867 C 330.424 351.734 297.901 359.198 262.58 380.524 C 242.453 392.653 231.123 396.385 213.396 396.385 C 197.135 396.385 184.339 393.72 169.677 387.055 C 160.214 382.657 148.617 374.793 149.95 373.593 C 150.217 373.193 153.816 374.126 157.681 375.592 C 168.744 379.724 185.805 381.457 198.068 379.724 C 217.794 377.058 226.325 373.06 271.11 346.269 C 318.694 317.745 356.282 300.684 392.536 291.354 C 428.924 281.757 466.245 278.958 499.568 283.223 Z M 552.217 598.052 C 543.953 600.584 534.356 608.448 530.224 616.312 C 526.359 623.777 526.225 637.239 529.958 643.503 C 533.556 649.501 542.62 655.233 553.416 658.565 C 566.745 662.564 570.344 668.562 561.68 671.894 C 555.416 674.293 547.152 672.161 541.954 666.962 L 537.288 662.297 L 526.625 667.895 C 520.761 670.961 515.962 674.293 515.962 675.36 C 515.962 681.224 525.292 691.354 534.356 695.22 C 540.754 698.019 562.214 698.419 570.877 695.886 C 578.608 693.753 587.139 686.556 590.737 679.358 C 594.603 672.027 595.536 660.431 592.87 654.167 C 590.471 648.568 580.741 640.838 572.61 638.305 C 562.08 634.973 554.749 630.574 554.616 627.509 C 554.616 624.976 559.414 622.444 564.346 622.444 C 568.611 622.444 570.744 623.244 574.076 626.576 L 578.342 630.708 L 586.072 626.309 C 600.468 618.445 600.201 618.712 597.935 614.446 C 595.136 608.982 588.205 602.584 581.94 599.785 C 574.076 596.186 560.881 595.386 552.217 598.052 Z M 16.794 600.051 C 16.261 601.651 11.863 626.976 4.798 669.095 C 2.932 679.758 1.2 690.021 0.8 692.021 L 0.267 695.753 L 27.591 695.753 L 30.79 676.426 C 32.656 664.43 34.522 657.232 35.322 657.499 C 36.121 657.765 40.653 666.429 45.318 676.826 L 53.849 695.753 L 82.506 695.753 L 80.107 690.688 C 77.308 684.823 72.909 675.226 65.712 659.498 L 60.38 647.902 L 65.178 641.238 C 67.844 637.639 76.241 626.842 83.839 617.379 C 91.303 607.915 97.434 599.651 97.434 599.251 C 97.434 598.852 90.637 598.452 82.239 598.452 L 66.911 598.452 L 53.982 615.779 C 42.386 631.241 38.787 635.24 38.787 632.041 C 38.787 631.507 39.987 624.177 41.453 615.779 C 42.919 607.382 44.119 600.051 44.119 599.385 C 44.119 597.652 17.461 598.318 16.794 600.051 Z M 101.433 599.118 C 101.433 599.518 106.231 612.047 112.096 626.976 L 122.893 654.167 L 119.427 672.827 C 117.561 683.09 116.095 692.421 116.095 693.62 C 116.095 695.486 118.094 695.753 129.29 695.753 C 141.82 695.753 142.486 695.62 143.153 692.687 C 143.552 691.088 145.285 681.757 146.885 671.894 L 149.95 654.167 L 170.477 626.576 L 191.003 599.118 L 177.141 598.718 C 169.677 598.452 162.213 598.718 160.747 599.118 C 159.281 599.518 154.349 605.649 149.55 613.114 C 144.885 620.444 140.487 626.442 139.954 626.442 C 138.887 626.442 136.355 620.045 132.356 607.116 L 129.824 599.118 L 115.695 598.718 C 107.831 598.585 101.433 598.718 101.433 599.118 Z M 198.201 600.718 C 197.801 602.051 194.202 622.31 190.07 645.769 C 185.938 669.228 182.34 690.021 181.94 692.021 L 181.14 695.753 L 245.119 695.753 L 247.251 684.157 C 248.851 675.493 248.984 672.294 247.784 671.627 C 246.985 671.094 239.254 670.694 230.59 670.828 C 221.926 670.961 214.462 670.694 214.062 670.161 C 213.662 669.761 213.662 667.229 214.062 664.563 L 214.995 659.898 L 231.123 659.498 L 247.385 659.098 L 248.984 650.434 C 249.917 645.636 250.584 640.171 250.717 638.039 L 250.717 634.44 L 220.06 634.44 L 220.06 630.708 C 220.06 624.177 220.993 623.91 239.387 623.51 L 256.582 623.11 L 258.181 616.579 C 259.114 613.114 260.047 607.649 260.314 604.583 L 260.714 599.118 L 229.79 598.718 C 201.267 598.452 198.867 598.585 198.201 600.718 Z M 274.042 601.384 C 273.376 604.45 270.044 623.643 262.713 666.429 C 260.447 679.225 258.314 691.088 258.048 692.687 C 257.381 695.753 257.515 695.753 271.11 695.753 L 284.839 695.753 L 291.237 658.698 C 294.836 638.438 298.568 617.645 299.501 612.714 C 302.566 597.519 303.366 598.452 288.038 598.452 C 275.375 598.452 274.709 598.585 274.042 601.384 Z M 311.897 599.118 C 311.097 599.785 311.763 606.582 317.361 658.165 C 319.627 678.159 321.36 694.82 321.36 695.22 C 321.36 695.486 327.491 695.753 335.089 695.753 L 348.818 695.753 L 352.683 687.356 C 366.145 658.165 372.277 646.169 373.343 647.236 C 374.009 647.902 375.475 657.099 376.675 667.762 C 377.875 678.425 379.074 689.088 379.607 691.354 L 380.274 695.753 L 407.332 695.753 L 413.33 682.69 C 416.529 675.626 421.594 664.696 424.393 658.432 C 438.521 627.909 450.651 600.718 450.651 599.651 C 450.651 598.985 444.119 598.452 436.122 598.452 L 421.727 598.452 L 417.728 607.382 C 415.596 612.447 410.531 623.777 406.532 632.707 C 402.666 641.771 398.934 649.102 398.401 649.102 C 397.868 649.102 397.068 647.769 396.802 646.036 C 396.269 643.637 392.536 611.781 391.603 601.784 C 391.337 599.385 390.404 599.118 380.274 599.118 L 369.078 599.118 L 357.481 623.643 C 351.084 637.239 345.219 648.435 344.552 648.702 C 343.619 648.968 342.553 641.904 341.487 629.508 C 340.687 618.712 339.621 607.249 339.221 604.05 L 338.554 598.452 L 325.492 598.452 C 318.294 598.452 312.163 598.718 311.897 599.118 Z M 458.115 599.518 C 457.582 600.451 453.583 622.71 447.318 659.098 C 446.385 664.963 444.519 674.826 443.453 681.091 C 442.253 687.356 441.32 693.22 441.32 694.02 C 441.32 695.353 448.518 695.753 473.043 695.753 L 504.899 695.753 L 506.899 684.023 C 508.231 676.426 508.498 672.161 507.565 671.627 C 506.899 671.094 499.035 670.561 490.237 670.561 C 481.307 670.428 473.843 670.028 473.576 669.761 C 473.176 669.495 473.443 667.096 473.843 664.43 L 474.776 659.765 L 489.838 659.765 C 500.367 659.765 505.432 659.232 506.365 658.032 C 507.432 656.699 510.631 640.304 510.631 635.906 C 510.631 634.973 505.166 634.44 495.169 634.44 L 479.841 634.44 L 480.241 629.375 L 480.641 624.443 L 498.635 623.777 L 516.629 623.11 L 518.228 615.113 C 519.028 610.714 519.961 605.249 520.227 603.117 L 520.627 599.118 L 489.704 598.718 C 472.777 598.585 458.515 598.852 458.115 599.518 Z M 608.731 600.718 C 607.532 604.85 605.266 618.845 605.266 622.044 C 605.266 624.976 605.666 625.11 615.929 625.11 C 624.993 625.11 626.592 625.509 626.592 627.242 C 626.592 628.975 618.995 674.693 615.529 693.62 C 615.396 694.553 619.928 695.22 628.725 695.486 L 642.32 695.886 L 645.119 679.491 C 646.719 670.428 648.851 658.565 649.918 653.1 C 650.984 647.635 652.184 640.038 652.717 636.439 C 654.183 625.509 654.45 625.243 666.846 624.843 L 677.909 624.443 L 680.174 612.447 C 681.374 605.783 682.44 600.051 682.44 599.385 C 682.574 598.852 666.179 598.452 646.052 598.452 C 612.33 598.452 609.398 598.585 608.731 600.718 Z M 545.286 731.208 C 539.821 733.607 532.49 740.271 529.824 745.336 C 526.759 751.201 527.425 763.597 531.157 769.062 C 534.09 773.46 537.155 775.326 555.016 782.924 C 564.746 787.056 559.015 793.72 547.418 791.588 C 543.953 791.055 541.021 789.455 539.155 787.056 L 536.355 783.457 L 526.759 788.389 C 521.56 791.055 517.295 793.587 517.295 793.854 C 517.295 796.12 521.827 802.651 525.826 806.116 C 534.889 813.98 552.084 815.713 566.079 810.115 C 576.475 805.983 581.54 799.052 582.34 787.722 C 583.407 773.86 579.674 769.462 561.547 762.397 C 551.817 758.665 549.151 755.866 551.817 752.534 C 554.483 749.335 561.814 749.868 566.212 753.6 L 569.944 756.799 L 579.008 752.134 C 583.94 749.468 587.938 746.936 587.938 746.536 C 587.938 744.003 577.409 733.74 572.743 731.608 C 565.946 728.542 551.817 728.409 545.286 731.208 Z M 13.062 735.34 C 12.662 738.139 9.863 754.533 6.931 771.728 C 3.865 788.922 1.2 805.05 0.8 807.316 L 0 811.714 L 52.916 811.714 L 54.515 802.117 C 55.315 796.786 55.715 791.988 55.315 791.454 C 54.915 790.921 48.384 790.388 40.653 790.388 L 26.658 790.388 L 27.058 785.989 L 27.458 781.724 L 40.92 781.324 L 54.382 780.925 L 55.981 773.46 C 58.514 760.398 59.18 761.064 44.652 761.064 L 31.989 761.064 L 32.389 756.666 L 32.789 752.401 L 47.051 752.001 C 63.579 751.601 63.312 751.734 64.912 738.672 L 65.845 730.408 L 13.862 730.408 Z M 78.107 731.741 C 77.708 732.407 76.508 738.005 75.442 744.003 C 74.509 750.135 71.443 767.196 68.91 782.124 C 66.245 797.052 64.112 809.715 64.112 810.381 C 64.112 811.181 69.044 811.714 75.175 811.714 L 86.238 811.714 L 87.971 801.318 C 91.036 783.59 92.769 776.659 94.102 776.659 C 95.568 776.659 95.302 776.126 105.298 796.786 L 112.496 811.714 L 130.623 811.714 L 131.423 806.649 C 131.823 803.984 132.756 799.052 133.422 795.72 C 134.089 792.387 135.555 784.257 136.621 777.726 C 137.821 771.061 139.954 759.065 141.42 751.068 C 145.418 728.942 146.085 730.408 133.422 730.408 C 125.958 730.408 122.493 730.941 122.093 732.007 C 121.826 732.94 120.36 741.071 118.761 750.001 C 117.161 759.065 115.295 766.396 114.495 766.396 C 113.829 766.396 109.297 758.265 104.499 748.402 L 95.835 730.408 L 87.438 730.408 C 82.773 730.408 78.507 730.941 78.107 731.741 Z M 152.749 734.673 C 152.349 737.072 151.55 741.871 150.883 745.336 C 149.55 752.534 149.95 752.801 160.613 752.934 C 164.212 752.934 167.411 753.334 167.811 753.6 C 168.344 754.267 167.278 761.198 160.613 800.385 C 159.68 806.249 158.747 811.181 158.747 811.314 C 158.747 811.581 163.812 811.714 169.944 811.714 C 182.873 811.714 181.14 814.114 184.739 791.988 C 189.537 762.797 190.87 755.333 191.536 754.267 C 191.936 753.6 195.668 753.067 199.8 753.067 C 203.932 753.067 208.198 752.534 209.131 751.867 C 210.73 750.934 214.595 737.206 214.729 732.007 C 214.729 730.808 207.798 730.408 184.072 730.408 L 153.549 730.408 Z M 222.193 732.007 C 221.127 735.739 218.594 749.602 214.062 776.393 C 211.53 791.721 208.997 805.983 208.597 808.115 L 207.798 811.714 L 234.322 811.448 L 260.714 811.048 L 262.446 802.384 C 263.379 797.719 263.779 793.054 263.379 791.988 C 262.979 790.788 260.314 790.255 254.449 790.388 C 235.788 790.788 234.722 790.655 234.722 787.322 C 234.722 781.991 237.121 781.058 250.184 781.058 L 262.446 781.058 L 263.912 774.393 C 266.845 760.931 267.111 761.198 253.116 760.798 C 241.253 760.398 240.72 760.265 240.32 757.199 C 240.054 755.466 240.32 753.6 240.987 752.934 C 241.52 752.401 248.184 751.734 255.782 751.601 C 264.312 751.468 269.777 750.934 270.444 749.868 C 271.643 748.002 274.309 731.874 273.509 731.074 C 273.243 730.675 261.647 730.408 247.784 730.408 C 228.857 730.408 222.46 730.808 222.193 732.007 Z M 283.506 733.34 C 283.106 734.94 282.173 740.005 281.507 744.403 C 280.707 748.802 278.308 762.531 276.042 775.06 C 273.776 787.456 271.643 800.918 271.11 804.65 L 270.31 811.714 L 281.107 811.714 C 293.369 811.714 291.903 813.447 294.969 796.386 C 296.702 787.322 296.835 787.056 300.967 786.656 L 305.099 786.256 L 308.964 798.652 L 312.83 811.048 L 323.759 811.448 C 331.757 811.714 334.689 811.314 334.689 810.115 C 334.689 809.315 332.823 802.784 330.424 795.586 L 326.292 782.791 L 332.29 776.926 C 345.752 763.997 345.352 744.27 331.623 734.807 C 326.159 731.208 325.492 731.074 305.099 730.675 L 284.172 730.141 Z M 358.148 732.007 C 357.215 735.073 349.884 775.993 346.552 796.386 C 345.885 800.785 344.952 805.983 344.552 808.115 L 343.753 811.714 L 366.412 811.714 L 368.011 802.651 C 368.811 797.719 369.877 792.787 370.144 791.588 C 370.544 789.988 373.21 789.188 380.674 788.655 C 393.603 787.456 400.267 784.657 406.399 777.592 C 414.796 768.262 417.195 753.867 412.13 744.003 C 406.399 732.807 400.267 730.408 376.675 730.408 C 363.346 730.408 358.414 730.808 358.148 732.007 Z M 427.991 731.074 C 427.991 731.474 426.259 741.871 423.993 754.133 C 415.595 802.251 414.662 807.582 414.662 809.715 C 414.662 811.448 416.262 811.714 425.725 811.448 L 436.655 811.048 L 438.655 799.052 C 440.654 787.189 440.787 787.056 444.786 786.656 C 448.651 786.256 449.051 786.656 451.584 793.987 C 453.183 798.252 455.049 803.984 455.982 806.649 L 457.582 811.714 L 468.911 811.714 C 477.442 811.714 480.107 811.314 479.574 809.982 C 479.308 809.182 477.042 802.651 474.643 795.586 L 470.244 782.924 L 476.775 776.259 C 486.505 766.529 489.171 755.2 484.106 744.403 C 478.775 732.94 472.643 730.541 447.052 730.408 C 436.522 730.408 427.991 730.675 427.991 731.074 Z M 499.968 731.741 C 499.968 732.541 498.501 741.338 496.769 751.468 C 494.903 761.464 491.97 778.392 490.104 788.789 C 488.105 799.318 486.639 808.782 486.639 809.848 C 486.639 812.381 507.698 812.514 508.631 809.982 C 509.298 808.382 522.627 732.94 522.627 731.208 C 522.627 730.808 517.562 730.408 511.297 730.408 C 504.633 730.408 499.968 730.941 499.968 731.741 Z M 603.267 732.007 C 602.467 734.673 600.468 745.736 595.269 776.393 C 592.737 791.721 590.204 805.983 589.804 808.115 L 589.005 811.714 L 615.396 811.448 L 641.787 811.048 L 643.52 802.384 C 644.453 797.719 644.986 792.921 644.586 791.988 C 644.053 790.655 641.121 790.255 632.857 790.388 C 616.062 790.788 615.929 790.788 615.929 787.322 C 615.929 781.991 618.328 781.058 631.391 781.058 C 645.253 781.058 644.186 781.991 646.052 768.129 L 646.852 761.198 L 634.456 760.798 L 621.927 760.398 L 621.927 752.401 L 635.922 752.001 C 643.653 751.867 650.451 751.068 650.984 750.535 C 652.45 749.068 655.782 732.007 654.849 731.074 C 654.45 730.675 642.853 730.408 628.991 730.408 C 610.064 730.408 603.666 730.808 603.267 732.007 Z" fill="rgb(250, 250, 250)"></path></g></svg>